<?xml version="1.0" encoding="iso-8859-1"?>
<!-- Generator: Adobe Illustrator 19.0.0, SVG Export Plug-In . SVG Version: 6.00 Build 0)  -->
<svg version="1.1" id="Capa_1" xmlns="http://www.w3.org/2000/svg" xmlns:xlink="http://www.w3.org/1999/xlink" x="0px" y="0px"
	 viewBox="0 0 298.162 298.162" style="enable-background:new 0 0 298.162 298.162;" xml:space="preserve">
<g>
	<path d="M86.393,240.214c-11.538-3.123-20.972-11.838-24.798-23.613L30.25,120.118c-1.256-3.865-1.809-7.791-1.75-11.644
		l-20.087,14.24c-8.974,6.361-11.11,18.908-4.749,27.883l58.67,82.758c3.886,5.482,10.081,8.412,16.359,8.412
		C81.298,241.767,83.918,241.251,86.393,240.214z M24.944,144.269l-7.358-3.539l-1.558,1.096l4.103,5.83l-3.385,2.381L6.519,135.501
		l3.384-2.381l4.004,5.691l1.149-0.809l-0.809-7.939l4.193-2.951l0.126,9.75l10.491,4.512L24.944,144.269z"/>
	<path d="M58.307,89.983c-10.462,3.4-16.24,14.74-12.841,25.203l31.346,96.477c2.738,8.428,10.629,13.814,19.064,13.814
		c2.035,0,4.104-0.313,6.138-0.975l-0.114-0.018c-12.504-5.467-21.262-17.873-21.262-32.555V90.487c0-2.809,0.491-5.541,1.087-8.166
		L58.307,89.983z M66.503,116.288l-6.09-5.438l-1.8,0.623l2.328,6.736l-3.911,1.352l-5.805-16.799l3.911-1.351l2.272,6.578
		l1.327-0.459l1.42-7.854l4.846-1.674l-2.577,9.402l8.832,7.24L66.503,116.288z"/>
	<polyline style="fill:none;stroke:#FFFFFF;stroke-width:0;stroke-linecap:round;stroke-linejoin:round;" points="126.971,52.489 
		126.971,52.483 127.131,52.483 	"/>
	<path d="M96.638,90.487v101.443c0,10.637,8.167,18.961,18.641,19.5c-3.04-2.836-5.514-6.213-7.462-10.035
		c-4.372-8.582-5.106-18.334-2.141-27.459l31.368-96.678c0.803-2.469,1.877-4.178,3.14-7.178h-23.667
		C105.517,70.081,96.638,79.487,96.638,90.487z M122.326,99.081h-5.029l-3.98-7h-2.678v7h-4v-18h4v7h2.178l3.906-7h5.127
		l-5.506,8.158L122.326,99.081z"/>
	<path d="M152.282,82.405l-31.347,96.477c-3.385,10.416,2.332,21.697,12.707,25.15c-1.678-3.258-2.87-6.789-3.504-10.512
		c-1.616-9.496,0.549-19.035,6.098-26.859l58.668-82.758c1.777-2.506,3.858-4.738,6.164-6.676l-23.584-7.664
		c-2.034-0.66-4.102-0.975-6.138-0.975C162.911,68.589,155.02,73.978,152.282,82.405z M173.695,99.462l-3.896-1.434l0.241-3.592
		l-5.258-1.934l-2.132,2.896l-3.896-1.434l11.521-14.699l4.159,1.529L173.695,99.462z"/>
	<polygon points="170.277,91.142 170.731,84.532 170.664,84.507 166.738,89.839 	"/>
	<path d="M289.75,126.628l-53.91-38.219c-3.491-2.476-7.524-3.664-11.523-3.664c-6.277,0-12.473,2.93-16.359,8.412l-58.668,82.756
		c-6.362,8.975-4.226,21.521,4.748,27.883l53.909,38.219c3.491,2.477,7.524,3.664,11.523,3.664c6.278,0,12.473-2.93,16.359-8.412
		l58.669-82.756C300.86,145.536,298.723,132.989,289.75,126.628z M224.689,92.983l3.613,2.566l-5.6,17.82l-3.385-2.402l1.174-3.404
		l-4.569-3.244l-2.816,2.24l-3.385-2.404L224.689,92.983z M241.296,137.437c19.68,48.484-4.809,61.852-16.494,58.135
		c-6.671-2.121-9.644-6.627-10.697-11.742l-7.6,12.607l-9.424-6.688l8.971-10.828c-5.023,0.539-10.114-1.301-14.191-6.729
		C184.498,162.386,189.035,134.858,241.296,137.437z"/>
	<polygon points="221.582,104.444 223.751,98.185 223.691,98.144 218.507,102.261 	"/>
</g>
<g>
</g>
<g>
</g>
<g>
</g>
<g>
</g>
<g>
</g>
<g>
</g>
<g>
</g>
<g>
</g>
<g>
</g>
<g>
</g>
<g>
</g>
<g>
</g>
<g>
</g>
<g>
</g>
<g>
</g>
</svg>
